<?xml version="1.0" encoding="utf-8"?>
<!-- Generator: Adobe Illustrator 22.0.0, SVG Export Plug-In . SVG Version: 6.00 Build 0)  -->
<svg version="1.1" id="Layer_2" xmlns="http://www.w3.org/2000/svg" xmlns:xlink="http://www.w3.org/1999/xlink" x="0px" y="0px"
	 viewBox="0 0 209 54" style="enable-background:new 0 0 209 54;" xml:space="preserve">
<style type="text/css">
	.st0{clip-path:url(#SVGID_2_);fill:url(#SVGID_3_);}
	.st1{fill:#FFFFFF;}
	.st2{font-family:'Inter-ExtraBold';}
	.st3{font-size:20px;}
</style>
<g>
	<defs>
		<path id="SVGID_1_" d="M21.6,38.8v-19c5.4-3.1,10.7-6.2,16.1-9.3l6.9,4c0,6.6,0,13.2,0,19.7H40c0-5.7,0-11.4,0-17.1l-2.3-1.3
			c-3.8,2.2-7.7,4.4-11.5,6.6c0,8.5,0,17,0,25.6c10.7,0,21.5,0,32.2,0V17.2l-4.6-2.7v28.9c-7.7,0-15.3,0-23,0c0-6.1,0-12.2,0-18.3
			l4.6-2.7c0,5.5,0,10.9,0,16.4c4.6,0,9.2,0,13.8,0c0-9,0-18,0-27c-3.8-2.2-7.7-4.4-11.5-6.6c-6.9,4-13.8,8-20.7,12v21.7H21.6z
			 M17,48h4.6v-4.6H17V48z"/>
	</defs>
	<clipPath id="SVGID_2_">
		<use xlink:href="#SVGID_1_"  style="overflow:visible;"/>
	</clipPath>
	<linearGradient id="SVGID_3_" gradientUnits="userSpaceOnUse" x1="25.875" y1="52.1403" x2="49.5891" y2="1.0797">
		<stop  offset="0" style="stop-color:#FFA240"/>
		<stop  offset="1" style="stop-color:#FDE500"/>
	</linearGradient>
	<rect x="17" y="5.2" class="st0" width="41.4" height="42.8"/>
</g>
<text transform="matrix(1 0 0 1 69.6668 37.3337)" class="st1 st2 st3">CANDISTAR</text>
</svg>
